<svg id="eO12hVnYUNf1" xmlns="http://www.w3.org/2000/svg" xmlns:xlink="http://www.w3.org/1999/xlink" viewBox="0 0 1000 800" shape-rendering="geometricPrecision" text-rendering="geometricPrecision">
<style><![CDATA[
#eO12hVnYUNf11_to {animation: eO12hVnYUNf11_to__to 1300ms linear infinite normal forwards}@keyframes eO12hVnYUNf11_to__to { 0% {transform: translate(427.344696px,489.043244px)} 46.153846% {transform: translate(475.344696px,529.043244px)} 100% {transform: translate(427.344696px,489.043244px)}} #eO12hVnYUNf11_tr {animation: eO12hVnYUNf11_tr__tr 1300ms linear infinite normal forwards}@keyframes eO12hVnYUNf11_tr__tr { 0% {transform: rotate(0deg)} 46.153846% {transform: rotate(48.86127deg)} 100% {transform: rotate(0deg)}}
]]></style>
<g clip-path="url(#eO12hVnYUNf38)"><g><g transform="matrix(1.000002 0 0 1.000002 535.614746 658.341858)"><g transform="translate(157.406006 18.388)"><path d="M-130.059998,18.138c0,0,260.119996,0,260.119996,0s0-18.664,0-18.664c0-9.727-7.884995-17.612-17.612-17.612c0,0-224.894997,0-224.894997,0-9.727005,0-17.612999,7.885-17.612999,17.612c0,0,0,18.664,0,18.664Z" fill="#925f37"/></g><g transform="translate(157.406006 44.353001)"><path d="M-143.608002,22.389c0,0,287.216004,0,287.216004,0s0-44.778,0-44.778-287.216004,0-287.216004,0s0,44.778,0,44.778Z" fill="#b07e49"/></g><g transform="translate(157.406006 58.231998)"><path d="M-157.156006,23.892c0,0,314.312012,0,314.312012,0s0-33,0-33c0-8.163999-6.619003-14.784-14.784012-14.784c0,0-284.744995,0-284.744995,0-8.164002,0-14.783005,6.620001-14.783005,14.784c0,0,0,33,0,33Z" fill="#925f37"/></g></g><g id="eO12hVnYUNf11_to" transform="translate(427.344696,489.043244)"><g id="eO12hVnYUNf11_tr" transform="rotate(0)"><g transform="translate(-427.344696,-489.043243)"><g transform="matrix(.957683-.287835 0.287835 0.957683 63.182556 483.834839)"><g transform="translate(247.936996 166.104996)"><path d="M247.686996,-131.222C247.686996,-131.222,58,-14.27,58,-14.27c-117.999001,83.479-193.440002,139.194004-265.186996,174.227001-9.561997,5.897995-23.738999-6.789002-29.63501-16.352005-5.896988-9.563996-10.86499-27.928993-1.300995-33.824997C-174.598007,61.412998,-90.935997,19.032,36.646999,-48.903c0,0,189.687001-116.951996,189.687001-116.951996s21.352996,34.632996,21.352996,34.632996Z" fill="#b07e49"/></g><g transform="translate(448.740997 39.889999)"><path d="M-1.009,21.267c3.45,5.594,10.781,7.334,16.376,3.883999c0,0,.205-.125.205-.125C21.166,21.577,22.905001,14.245,19.455999,8.651c0,0-18.445999-29.919-18.445999-29.919-3.45-5.594-10.781-7.333-16.375-3.882999c0,0-.205.125-.205.125C-21.165001,-21.577,-22.903999,-14.245,-19.454,-8.651c0,0,18.445,29.918,18.445,29.918Z" fill="#925f37"/></g><g transform="translate(427.882996 52.75)"><path d="M2.926,18.841c3.45,5.595001,9.036,8.409,12.478,6.287c0,0,.127-.078001.127-.078001c3.444-2.122999,3.438-8.377998-.01-13.973999c0,0-18.448-29.917-18.448-29.917-3.45-5.593999-9.036-8.409-12.479-6.286001c0,0-.125.078001-.125.078001-3.443001,2.122-3.438,8.378.012,13.973c0,0,18.445,29.917,18.445,29.917Z" fill="#925f37"/></g><g transform="translate(305.096008 128.455002)"><path d="M2.926,18.841c3.449,5.593999,9.037,8.409,12.479,6.284999c0,0,.126-.076999.126-.076999c3.443001-2.122999,3.438-8.379-.011-13.973c0,0-18.446-29.917999-18.446-29.917999-3.45-5.595001-9.037-8.409-12.48-6.287001c0,0-.126.077999-.126.077999-3.442001,2.122-3.437,8.378001.012,13.974001c0,0,18.446,29.918,18.446,29.918Z" fill="#925f37"/></g></g><g transform="matrix(.957685-.287836 0.287836 0.957685 409.231842 217.36911)"><g transform="translate(122.101997 145.242996)"><path d="M-0.018,114.029999c0,0,101.907999-62.830998,101.907999-62.830998s-101.872999-165.229999-101.872999-165.229999-101.906999,62.832996-101.906999,62.832996s101.871999,165.228001,101.871999,165.228001Z" fill="#925f37"/></g><g transform="translate(122.100998 145.242996)"><path d="M-21.240999,95.007004c0,0,115.667002-71.316004,115.667002-71.316004s-73.185004-118.698004-73.185004-118.698004-115.667002,71.316004-115.667002,71.316004s73.185004,118.698004,73.185004,118.698004Z" fill="#925f37"/></g><g transform="translate(156.024002 200.263)"><path d="M-63.112,40.352001c0,0-1.287002-2.088001-1.287002-2.088001-2.699997-4.379002.181999-11.056,6.436001-14.912001c0,0,104.859001-64.650999,104.859001-64.650999c6.255001-3.856998,13.514-3.431999,16.215.945999c0,0,1.288002,2.089001,1.288002,2.089001c2.699997,4.379002-.181999,11.056-6.437,14.913c0,0-104.858002,64.650999-104.858002,64.650999-6.255001,3.857002-13.514999,3.431999-16.216-.947998Z" fill="#b07e49"/></g><g transform="translate(88.18 90.223999)"><path d="M-64.399002,38.263c0,0,1.288002,2.090001,1.288002,2.090001c2.699001,4.378997,9.959,4.802997,16.215.945999c0,0,104.858002-64.650999,104.858002-64.650999c6.255001-3.856001,9.136997-10.532,6.437-14.911001c0,0-1.288002-2.089001-1.288002-2.089001-2.700001-4.379997-9.959999-4.803997-16.215-.946999c0,0-104.858002,64.65-104.858002,64.65-6.256,3.857-9.136997,10.531999-6.437,14.912Z" fill="#b07e49"/></g><g transform="translate(185.074005 247.380005)"><path d="M-52.012001,34.126999c0,0-1.84-2.983-1.84-2.983C-57.708,24.889,-56.624001,17.223,-51.431,14.021c0,0,87.057999-53.676998,87.057999-53.676998c5.193001-3.201,12.530002-.727001,16.385002,5.528999c0,0,1.84,2.983,1.84,2.983C57.709,-24.889,56.625,-17.223,51.431999,-14.021C26.926001,8.724,-2.56,26.115999,-35.625999,39.654999c-5.194001,3.201999-12.531002.727001-16.386002-5.528Z" fill="#925f37"/></g><g transform="translate(59.130001 43.106998)"><path d="M-53.852001,31.143999c0,0,1.839001,2.983,1.839001,2.983c3.857002,6.256,11.193,8.729999,16.386001,5.528999c0,0,87.057999-53.676998,87.057999-53.676998c5.194-3.202,6.278-10.868,2.420002-17.122999c0,0-1.839001-2.983-1.839001-2.983-3.856003-6.255001-11.192001-8.729999-16.385002-5.528C4.297,-27.975,-24.483999,-9.442,-51.431999,14.021C-56.625,17.223,-57.709,24.889,-53.852001,31.143999Z" fill="#925f37"/></g><g transform="translate(179.207993 237.865997)"><path d="M-60.874001,37.373001c0,0,.140999.23.140999.23c3.872002,6.278999,13.375,7.444999,21.225003,2.604c0,0,93.175998-57.447001,93.175998-57.447001c7.852001-4.840999,11.077004-13.854999,7.206002-20.134001c0,0-.142003-.229-.142003-.229-3.870998-6.278-13.372997-7.444999-21.223999-2.604c0,0-93.175998,57.448-93.175998,57.448-7.852001,4.841002-11.077004,13.854-7.206002,20.132002Z" fill="#b07e49"/></g><g transform="translate(64.995003 52.622002)"><path d="M-60.733002,37.602001c0,0-.141998-.228-.141998-.228C-64.746002,31.094999,-61.52,22.08,-53.668999,17.24c0,0,93.176998-57.448,93.176998-57.448c7.852002-4.84,17.354001-3.674999,21.225003,2.604c0,0,.140999.230999.140999.230999c3.872001,6.278002.645999,15.290001-7.206002,20.131c0,0-93.175998,57.448002-93.175998,57.448002-7.851002,4.841-17.353001,3.675-21.225003-2.604Z" fill="#b07e49"/></g></g></g></g></g></g><clipPath id="eO12hVnYUNf38"><rect width="1000" height="800" rx="0" ry="0"/></clipPath></g></svg>
