
<svg version="1.0" xmlns="http://www.w3.org/2000/svg"
 width="364.000000pt" height="476.000000pt" viewBox="0 0 364.000000 476.000000"
 preserveAspectRatio="xMidYMid meet">
<metadata>
Created by potrace 1.16, written by Peter Selinger 2001-2019
</metadata>
<g transform="translate(0.000000,476.000000) scale(0.100000,-0.100000)"
fill="#000000" stroke="none">
<path d="M2820 4665 c0 -6 10 -21 23 -32 21 -19 36 -20 345 -21 177 0 322 3
322 7 0 7 -34 23 -108 52 -37 14 -582 9 -582 -6z"/>
<path d="M1708 4574 c-26 -14 -48 -42 -48 -62 0 -5 38 -10 85 -10 69 -1 87 2
95 16 9 16 9 16 10 0 0 -14 9 -18 39 -18 34 0 43 5 58 30 9 17 21 30 25 30 4
0 8 7 8 15 0 20 -59 20 -88 -1 -20 -14 -22 -14 -22 0 0 18 -32 21 -61 6 -13
-7 -19 -7 -19 0 0 15 -51 12 -82 -6z"/>
<path d="M2810 4571 c0 -10 14 -22 35 -30 19 -7 35 -17 35 -22 0 -17 30 -9 30
9 1 14 3 14 19 -5 22 -26 63 -30 85 -8 17 17 62 20 71 5 10 -16 25 -12 25 7 0
14 3 14 20 -4 16 -18 31 -21 100 -21 44 0 80 4 80 9 0 6 7 6 18 1 9 -5 83 -10
165 -11 l147 -1 0 35 c0 24 -6 37 -19 45 -27 14 -531 11 -531 -4 0 -6 -5 -5
-12 2 -15 15 -78 16 -78 1 0 -8 -4 -8 -12 -1 -7 6 -50 10 -95 10 -71 0 -83 -3
-83 -17z"/>
<path d="M1520 4483 c-38 -15 -80 -57 -80 -79 0 -28 29 -32 73 -10 23 13 27
13 27 0 0 -19 43 -18 80 1 27 14 30 14 30 0 0 -19 45 -20 83 -1 23 13 27 13
27 0 0 -21 63 -18 93 6 l25 20 5 -22 c5 -18 11 -20 49 -15 23 3 48 13 54 22
10 14 12 13 17 -5 7 -27 67 -28 90 -2 19 21 23 77 6 88 -17 10 -89 -17 -90
-35 -1 -9 -4 -5 -8 9 -4 14 -15 26 -25 28 -28 6 -75 -18 -83 -42 -6 -19 -7
-18 -13 9 -7 40 -39 44 -75 11 -33 -31 -35 -31 -28 -7 3 10 0 22 -6 26 -16 9
-68 -4 -86 -22 -13 -13 -15 -12 -15 6 0 35 -67 22 -97 -18 -9 -13 -10 -11 -6
12 4 22 2 27 -13 26 -11 0 -26 -3 -34 -6z"/>
<path d="M2149 4469 c-14 -14 -19 -30 -17 -52 3 -29 7 -32 39 -35 23 -2 40 2
49 12 16 20 30 20 44 1 10 -14 16 -13 54 7 33 18 42 29 42 50 0 21 -6 28 -29
33 -37 8 -71 -9 -71 -35 0 -11 -4 -20 -10 -20 -5 0 -10 8 -10 18 0 43 -56 56
-91 21z"/>
<path d="M3304 4476 c-13 -35 53 -96 104 -96 17 0 32 4 34 9 2 6 21 5 47 -2
33 -9 45 -9 48 -1 3 9 13 9 38 2 52 -16 65 -6 65 49 0 47 -1 48 -33 49 -17 1
-35 -3 -38 -8 -4 -7 -14 -6 -27 1 -33 18 -52 13 -52 -11 -1 -20 -2 -21 -10 -6
-12 20 -68 34 -82 20 -6 -6 -21 -7 -41 -1 -42 12 -47 11 -53 -5z"/>
<path d="M1375 4345 c-40 -21 -65 -52 -65 -81 0 -20 5 -24 31 -24 17 0 44 9
60 21 l29 20 0 -22 c0 -20 4 -21 41 -16 52 7 80 34 82 78 2 40 -18 48 -65 25
-29 -15 -33 -15 -40 -1 -11 19 -35 19 -73 0z"/>
<path d="M3424 4345 c-3 -8 -2 -20 2 -27 5 -10 4 -11 -7 0 -7 6 -17 12 -21 12
-9 0 -10 -35 -2 -67 8 -30 44 -31 44 -2 l0 20 26 -20 c16 -12 41 -21 62 -21
31 0 34 2 30 25 l-5 24 29 -24 c48 -41 58 -34 57 38 -1 34 -3 55 -6 46 -4 -16
-7 -16 -45 -1 -37 15 -41 15 -52 0 -10 -14 -16 -14 -45 -2 -42 18 -60 18 -67
-1z"/>
<path d="M1117 4183 c-36 -28 -57 -77 -40 -94 16 -16 73 3 98 33 l25 29 -6
-29 c-8 -39 8 -48 57 -32 49 16 68 38 76 84 5 34 4 36 -23 36 -16 0 -41 -6
-56 -14 -23 -12 -27 -12 -32 0 -9 23 -60 16 -99 -13z"/>
<path d="M1626 4188 c-40 -37 -42 -64 -7 -82 17 -9 39 -16 49 -16 20 0 52 29
52 48 0 7 5 12 10 12 6 0 10 -11 10 -24 0 -53 57 -58 105 -10 19 19 25 34 23
58 -3 30 -5 31 -47 30 -33 -1 -49 -7 -63 -24 -17 -21 -18 -21 -18 -2 0 38 -75
45 -114 10z"/>
<path d="M3427 4163 c7 -58 15 -69 53 -77 42 -8 60 2 60 33 0 14 4 22 8 16 14
-19 47 -43 70 -49 21 -7 22 -5 22 43 0 58 -22 81 -77 81 -26 0 -33 -4 -33 -20
0 -20 0 -20 -32 0 -18 11 -43 20 -55 20 -21 0 -22 -3 -16 -47z"/>
<path d="M722 4032 c-29 -23 -62 -72 -62 -94 0 -22 28 -23 58 -2 20 14 22 14
22 -2 0 -14 7 -16 37 -11 47 8 82 43 90 90 5 34 4 37 -19 37 -13 0 -30 -6 -37
-12 -11 -10 -14 -10 -18 0 -7 17 -44 15 -71 -6z"/>
<path d="M995 4027 c-18 -15 -28 -36 -32 -65 -5 -40 -4 -42 20 -42 28 0 76 22
88 42 6 9 9 4 9 -14 0 -25 4 -28 33 -28 20 0 47 10 68 25 l34 26 5 -23 c12
-47 88 -35 125 19 l25 38 0 -38 c0 -25 5 -40 15 -44 22 -8 24 -3 18 45 -3 24
-11 42 -18 42 -7 0 -15 9 -18 20 -8 32 -77 28 -115 -8 l-30 -28 1 25 c2 23 -2
26 -37 29 -31 3 -44 -2 -67 -24 l-29 -28 0 27 c0 24 -4 27 -34 27 -22 0 -45
-9 -61 -23z"/>
<path d="M586 3858 c-40 -40 -56 -68 -56 -102 0 -34 26 -34 63 -1 l27 26 0
-26 c0 -20 5 -25 24 -25 26 0 41 12 81 64 29 38 34 96 10 96 -26 0 -73 -29
-78 -47 -3 -10 -5 -3 -6 15 -1 21 -6 32 -16 32 -8 0 -30 -15 -49 -32z"/>
<path d="M1044 3876 c-40 -18 -70 -79 -58 -115 15 -43 59 -41 101 4 19 20 36
35 37 33 1 -1 6 -16 12 -33 7 -24 16 -31 40 -33 18 -2 38 3 45 11 46 47 59 70
59 101 0 30 -4 35 -29 41 -37 8 -76 -11 -101 -51 l-20 -29 0 36 c0 50 -26 61
-86 35z"/>
<path d="M1345 3876 c-35 -15 -55 -52 -55 -100 0 -53 64 -65 103 -20 12 15 28
32 35 40 18 18 15 65 -5 80 -22 17 -40 17 -78 0z"/>
<path d="M567 3679 c-42 -36 -66 -101 -46 -125 15 -19 20 -18 63 11 33 22 36
23 36 6 0 -41 80 -30 104 14 24 42 35 47 29 12 -7 -44 13 -61 59 -49 23 6 39
19 53 45 26 47 35 47 35 -2 0 -26 5 -41 16 -45 39 -15 114 28 114 66 0 10 5
18 10 18 17 0 11 40 -9 61 -26 28 -72 18 -106 -23 -17 -19 -25 -24 -25 -14 0
22 -31 56 -51 56 -9 0 -32 -13 -50 -30 l-34 -29 -3 25 c-6 48 -64 44 -97 -6
l-20 -30 -5 32 c-7 44 -28 46 -73 7z"/>
<path d="M1090 3671 c-41 -39 -51 -78 -31 -111 25 -38 131 4 131 52 0 10 5 18
10 18 6 0 10 9 10 20 0 11 -4 20 -10 20 -5 0 -10 6 -10 14 0 14 -21 26 -46 26
-8 0 -32 -17 -54 -39z"/>
<path d="M1255 3677 c-33 -30 -36 -36 -33 -77 3 -43 5 -45 35 -48 71 -7 140
91 98 138 -26 29 -58 25 -100 -13z"/>
<path d="M2910 3641 c0 -64 59 -109 122 -93 38 10 56 50 39 88 -10 22 -16 24
-86 24 -67 0 -75 -2 -75 -19z"/>
<path d="M483 3500 c-27 -11 -65 -92 -61 -128 5 -41 44 -42 79 -3 l27 31 6
-31 c5 -28 8 -30 43 -27 32 3 41 9 58 40 11 21 23 38 27 38 4 0 8 -17 10 -37
2 -31 7 -39 27 -41 41 -6 69 7 85 40 21 41 21 117 0 125 -25 9 -90 -26 -101
-55 -11 -27 -11 -26 -12 10 -1 31 -5 39 -26 44 -29 7 -94 -31 -96 -56 -1 -8
-4 1 -8 20 -6 37 -22 45 -58 30z"/>
<path d="M874 3493 c-42 -21 -66 -90 -48 -137 7 -17 69 -22 92 -7 36 23 56
123 30 149 -16 16 -36 14 -74 -5z"/>
<path d="M1034 3494 c-39 -20 -61 -77 -47 -120 8 -24 16 -30 48 -32 33 -3 42
1 72 34 33 37 43 83 25 111 -13 21 -64 24 -98 7z"/>
<path d="M2979 3504 c-25 -8 -52 -62 -44 -92 17 -69 117 -100 151 -47 19 29
14 99 -8 121 -14 14 -74 25 -99 18z"/>
<path d="M3550 3497 c-20 -10 -26 -21 -28 -55 -3 -36 1 -47 27 -72 20 -20 39
-30 60 -30 l31 0 0 75 c0 63 -3 76 -19 85 -25 13 -40 13 -71 -3z"/>
<path d="M270 3258 c-46 -64 -39 -148 11 -134 25 6 58 60 61 99 1 12 4 -5 7
-38 4 -43 10 -61 22 -63 16 -3 59 32 77 64 11 18 11 17 12 -6 2 -64 55 -79 91
-25 13 19 27 35 32 35 4 0 7 22 7 50 0 44 -3 50 -24 56 -33 8 -85 -23 -94 -56
-6 -22 -7 -21 -12 15 -4 33 -9 41 -28 43 -14 2 -33 -5 -46 -17 -22 -20 -22
-20 -36 -1 -22 31 -47 24 -80 -22z"/>
<path d="M800 3278 c-31 -21 -35 -29 -38 -75 -2 -36 2 -55 13 -67 23 -22 62
-20 83 5 9 11 25 30 35 41 18 22 23 74 9 95 -16 25 -65 26 -102 1z"/>
<path d="M968 3283 c-27 -17 -48 -58 -48 -93 0 -28 39 -70 66 -70 13 0 39 14
59 34 29 28 35 42 35 74 0 68 -51 93 -112 55z"/>
<path d="M1139 3271 c-35 -35 -39 -92 -10 -130 41 -53 131 6 131 86 0 24 -6
48 -16 57 -25 26 -72 20 -105 -13z"/>
<path d="M2790 3293 c-27 -9 -40 -36 -40 -79 0 -35 5 -47 31 -68 33 -28 40
-29 87 -20 43 9 66 75 46 129 -13 32 -81 53 -124 38z"/>
<path d="M2980 3280 c-42 -42 -14 -143 43 -154 46 -9 52 -8 81 19 20 19 26 33
26 67 0 37 -4 46 -33 66 -41 28 -90 29 -117 2z"/>
<path d="M3386 3284 c-23 -23 -21 -95 4 -127 22 -28 64 -41 102 -32 30 8 48
54 40 104 -8 58 -107 95 -146 55z"/>
<path d="M3166 3264 c-15 -39 -5 -74 29 -109 64 -63 135 -36 135 52 l0 43 -38
0 c-21 0 -47 7 -58 15 -25 19 -60 19 -68 -1z"/>
<path d="M207 3055 c-9 -20 -17 -42 -17 -50 0 -8 -4 -15 -10 -15 -5 0 -10 -13
-10 -30 0 -16 5 -30 10 -30 6 0 10 -7 10 -15 0 -27 34 -16 58 18 12 18 22 45
22 60 0 15 5 27 11 27 7 0 8 -11 4 -30 -10 -46 3 -90 26 -90 53 0 103 103 78
162 -11 27 -49 41 -49 18 0 -5 -6 -10 -14 -10 -8 0 -16 -7 -20 -15 -7 -20 -36
-8 -36 16 0 35 -44 24 -63 -16z"/>
<path d="M427 3045 c-27 -45 -37 -115 -17 -115 6 0 10 -7 10 -15 0 -25 47 -17
76 12 21 21 29 40 32 80 5 61 -7 83 -47 83 -20 0 -32 -10 -54 -45z"/>
<path d="M600 3081 c0 -5 -9 -12 -19 -16 -37 -12 -53 -103 -25 -143 21 -30 56
-28 94 8 27 25 32 38 33 78 1 29 -4 56 -12 65 -14 18 -71 24 -71 8z"/>
<path d="M1099 3061 c-43 -43 -46 -141 -4 -141 8 0 15 -4 15 -10 0 -5 14 -10
30 -10 17 0 30 4 30 9 0 5 8 12 18 16 46 14 57 109 17 143 -33 29 -74 26 -106
-7z"/>
<path d="M1297 3067 c-39 -48 -59 -107 -37 -107 6 0 10 -6 10 -13 0 -7 9 -20
20 -30 52 -44 130 7 130 85 -1 56 -27 88 -72 88 -22 -1 -39 -8 -51 -23z"/>
<path d="M2810 3080 c0 -5 -7 -10 -15 -10 -8 0 -15 -9 -15 -20 0 -11 4 -20 10
-20 5 0 13 -18 16 -39 6 -35 11 -41 50 -56 57 -22 74 -10 74 52 0 50 -14 83
-35 83 -8 0 -15 5 -15 10 0 6 -16 10 -35 10 -19 0 -35 -4 -35 -10z"/>
<path d="M3003 3068 c-29 -34 -34 -55 -22 -100 6 -26 17 -42 30 -45 10 -3 19
-9 19 -14 0 -5 16 -9 35 -9 19 0 35 5 35 10 0 6 7 10 15 10 36 0 49 98 16 128
-41 37 -51 42 -79 42 -17 0 -37 -9 -49 -22z"/>
<path d="M3213 3064 c-35 -40 -31 -98 8 -135 39 -37 79 -38 114 -4 37 38 35
94 -6 134 -39 40 -84 42 -116 5z"/>
<path d="M3433 3077 c-7 -7 -19 -18 -28 -25 -46 -39 17 -152 85 -152 45 0 69
32 70 92 0 42 -4 50 -33 72 -36 28 -74 33 -94 13z"/>
<path d="M283 2863 c-7 -2 -13 -11 -13 -19 0 -8 -4 -14 -9 -14 -12 0 -31 -56
-31 -89 0 -36 26 -71 54 -71 29 0 56 55 56 116 0 69 -18 93 -57 77z"/>
<path d="M408 2863 c-20 -5 -48 -72 -48 -113 0 -44 20 -80 44 -80 47 1 76 46
76 119 0 67 -20 88 -72 74z"/>
<path d="M559 2863 c-26 -7 -49 -58 -49 -110 1 -58 17 -83 56 -83 63 0 101
127 54 178 -20 22 -29 24 -61 15z"/>
<path d="M1100 2863 c-35 -14 -60 -57 -60 -103 1 -57 26 -90 70 -90 48 0 79
42 80 106 0 72 -36 107 -90 87z"/>
<path d="M3254 2863 c-20 -4 -34 -24 -48 -67 -10 -29 12 -94 34 -101 11 -4 20
-11 20 -16 0 -5 16 -9 35 -9 19 0 35 5 35 10 0 6 7 10 15 10 8 0 19 9 25 19
21 40 7 131 -21 131 -6 0 -17 7 -25 15 -15 15 -28 16 -70 8z"/>
<path d="M3469 2864 c-24 -7 -49 -58 -49 -99 0 -46 47 -95 91 -95 16 0 29 4
29 8 0 5 11 15 25 22 21 11 25 21 25 57 0 26 -6 51 -15 59 -8 8 -18 21 -23 29
-8 16 -57 26 -83 19z"/>
<path d="M227 2601 c-17 -29 -22 -96 -11 -138 5 -18 14 -23 39 -23 27 0 35 6
49 34 19 40 21 95 4 131 -16 36 -58 34 -81 -4z"/>
<path d="M357 2601 c-20 -35 -22 -118 -3 -143 19 -26 55 -22 82 8 29 30 33
107 8 142 -23 33 -65 29 -87 -7z"/>
<path d="M503 2600 c-30 -38 -32 -111 -3 -140 26 -26 72 -26 95 0 26 28 32
113 11 145 -24 36 -73 34 -103 -5z"/>
<path d="M667 2601 c-31 -53 -17 -153 23 -164 33 -9 67 5 83 33 20 33 22 98 5
135 -9 21 -18 25 -52 25 -35 0 -44 -4 -59 -29z"/>
<path d="M851 2604 c-38 -48 -22 -162 23 -166 44 -3 59 3 88 34 26 28 29 38
25 74 -6 53 -36 84 -81 84 -25 0 -40 -7 -55 -26z"/>
<path d="M1040 2601 c-19 -20 -25 -37 -25 -71 0 -66 44 -106 104 -94 55 11 80
104 44 165 -15 25 -23 29 -58 28 -29 -1 -47 -8 -65 -28z"/>
<path d="M1270 2620 c0 -5 -7 -10 -15 -10 -21 0 -35 -33 -35 -83 0 -33 6 -49
25 -67 26 -25 86 -32 93 -12 2 7 9 12 16 12 17 0 36 44 36 84 0 51 -33 86 -81
86 -21 0 -39 -4 -39 -10z"/>
<path d="M1453 2604 c-45 -51 -20 -156 38 -168 35 -7 53 0 85 29 32 30 30 65
-6 103 -16 18 -30 39 -30 47 0 26 -62 19 -87 -11z"/>
<path d="M3260 2620 c0 -5 -6 -10 -13 -10 -14 0 -37 -54 -37 -88 0 -12 14 -37
30 -54 62 -64 150 -27 150 63 0 47 -14 79 -35 79 -8 0 -15 5 -15 10 0 6 -18
10 -40 10 -22 0 -40 -4 -40 -10z"/>
<path d="M3447 2601 c-26 -45 -22 -95 12 -133 36 -41 89 -45 121 -8 61 71 19
170 -73 170 -36 0 -45 -4 -60 -29z"/>
<path d="M18 2378 c-13 -26 -16 -109 -5 -151 6 -23 12 -28 34 -25 18 2 29 10
33 25 5 24 18 20 36 -11 28 -51 57 -23 62 58 5 76 -11 126 -39 126 -11 0 -19
-4 -19 -8 0 -5 -9 -19 -19 -31 l-19 -22 -7 31 c-8 37 -38 41 -57 8z"/>
<path d="M215 2363 c-13 -27 -16 -50 -12 -92 7 -61 27 -85 61 -75 34 10 40 21
44 87 4 57 1 67 -21 90 -33 36 -51 34 -72 -10z"/>
<path d="M358 2381 c-10 -10 -18 -23 -18 -29 0 -7 -4 -12 -10 -12 -5 0 -10
-20 -10 -45 0 -25 4 -45 10 -45 5 0 12 -11 16 -25 5 -20 12 -25 40 -25 44 0
64 29 64 96 0 40 -5 57 -25 78 -28 30 -43 32 -67 7z"/>
<path d="M513 2387 c-7 -7 -19 -18 -28 -25 -17 -15 -20 -86 -5 -127 13 -33 55
-50 91 -35 30 13 39 34 39 98 0 49 -14 82 -35 82 -8 0 -15 5 -15 10 0 14 -32
12 -47 -3z"/>
<path d="M676 2380 c-37 -38 -63 -120 -37 -120 5 0 12 -11 15 -25 8 -31 44
-47 83 -36 59 15 71 152 16 176 -13 5 -23 13 -23 17 0 15 -35 7 -54 -12z"/>
<path d="M880 2390 c0 -5 -6 -10 -14 -10 -41 0 -60 -94 -31 -149 24 -47 105
-48 120 -2 3 12 11 21 16 21 5 0 9 18 9 41 0 33 -6 47 -34 75 -33 33 -66 45
-66 24z"/>
<path d="M1064 2387 c-6 -7 -21 -20 -33 -29 -15 -13 -21 -29 -21 -61 0 -60 35
-101 85 -101 50 0 74 32 75 97 0 58 -14 87 -40 87 -11 0 -20 5 -20 10 0 14
-33 12 -46 -3z"/>
<path d="M1280 2390 c0 -5 -9 -10 -20 -10 -22 0 -50 -46 -50 -81 0 -13 5 -37
12 -56 21 -57 96 -66 140 -17 40 45 29 136 -17 148 -14 4 -25 11 -25 16 0 6
-9 10 -20 10 -11 0 -20 -4 -20 -10z"/>
<path d="M1463 2374 c-30 -23 -33 -31 -33 -77 1 -71 23 -99 79 -101 34 0 46 4
66 28 28 33 35 105 11 128 -59 56 -76 59 -123 22z"/>
<path d="M3280 2393 c0 -5 -14 -16 -30 -25 -27 -16 -30 -22 -30 -71 0 -43 5
-58 23 -74 30 -28 59 -35 92 -23 41 16 54 39 55 96 0 51 -19 84 -48 84 -7 0
-12 5 -12 10 0 6 -11 10 -25 10 -14 0 -25 -3 -25 -7z"/>
<path d="M3500 2390 c0 -5 -6 -10 -13 -10 -28 0 -47 -36 -47 -86 1 -68 24 -96
79 -98 58 -1 91 35 91 100 0 43 -5 52 -54 92 -18 14 -56 16 -56 2z"/>
<path d="M1675 2372 c-17 -12 -45 -60 -45 -77 0 -27 50 -93 76 -99 34 -9 73 3
85 26 8 15 5 24 -20 47 -17 16 -31 36 -31 45 0 9 -4 16 -9 16 -5 0 -11 10 -13
22 -3 23 -25 34 -43 20z"/>
<path d="M27 2135 c-8 -8 -17 -11 -21 -8 -3 4 -6 -34 -6 -82 0 -79 2 -87 14
-69 14 18 15 18 21 2 4 -10 17 -18 30 -18 19 0 24 7 30 39 7 40 -1 103 -17
134 -11 21 -32 22 -51 2z"/>
<path d="M220 2131 c-14 -27 -12 -111 3 -141 9 -17 22 -26 45 -28 27 -3 34 1
43 25 17 44 6 123 -21 145 -29 23 -57 23 -70 -1z"/>
<path d="M355 2130 c-14 -15 -17 -32 -13 -79 5 -71 19 -91 64 -91 41 0 54 24
54 96 0 36 -5 50 -26 69 -32 30 -55 32 -79 5z"/>
<path d="M502 2132 c-17 -15 -22 -30 -22 -71 0 -28 3 -51 8 -51 4 0 12 -10 17
-22 8 -18 18 -23 50 -23 32 0 42 5 53 25 16 31 10 116 -9 136 -25 24 -72 28
-97 6z"/>
<path d="M671 2131 c-24 -24 -28 -84 -9 -128 17 -37 26 -43 71 -43 44 0 57 22
57 99 0 54 -18 77 -67 87 -24 5 -36 1 -52 -15z"/>
<path d="M860 2137 c-23 -12 -25 -18 -25 -81 0 -78 14 -96 75 -96 47 0 71 26
77 82 4 35 0 48 -19 70 -28 33 -74 43 -108 25z"/>
<path d="M1048 2132 c-47 -28 -49 -98 -5 -148 16 -18 31 -24 63 -24 53 0 66
16 72 85 4 47 1 57 -21 79 -30 30 -69 33 -109 8z"/>
<path d="M1257 2139 c-16 -6 -30 -21 -33 -35 -9 -37 2 -115 17 -125 47 -31
125 -21 139 17 16 40 12 100 -7 122 -22 25 -78 35 -116 21z"/>
<path d="M1455 2125 c-32 -31 -34 -94 -4 -136 17 -24 27 -29 63 -29 64 0 103
49 90 116 -4 23 -16 40 -39 54 -43 27 -81 25 -110 -5z"/>
<path d="M1675 2128 c-25 -20 -27 -25 -23 -81 5 -70 21 -87 83 -87 91 0 127
116 51 168 -41 28 -76 28 -111 0z"/>
<path d="M3263 2138 c-23 -11 -31 -28 -15 -28 8 0 26 -56 39 -122 5 -28 18
-33 58 -22 44 11 63 125 26 158 -24 22 -79 29 -108 14z"/>
<path d="M3479 2139 c-45 -16 -62 -80 -37 -136 17 -37 26 -43 74 -43 64 0 103
55 90 126 -10 53 -65 76 -127 53z"/>
<path d="M2 1823 c3 -88 3 -88 30 -91 18 -2 28 1 28 9 0 10 3 10 12 1 20 -20
56 -14 64 10 l7 23 8 -23 c7 -19 15 -23 41 -20 30 3 34 7 39 43 3 22 7 33 8
24 2 -33 42 -70 70 -67 25 3 26 6 29 66 4 78 -14 112 -58 112 -22 0 -33 -7
-44 -27 -8 -16 -15 -23 -16 -16 -1 39 -74 59 -85 23 -3 -11 -10 -20 -15 -20
-5 0 -12 9 -15 20 -4 13 -15 20 -31 20 -22 0 -24 -4 -25 -47 l-1 -48 -11 44
c-7 25 -18 46 -25 49 -10 3 -12 -16 -10 -85z"/>
<path d="M369 1889 c-14 -28 -6 -101 15 -134 20 -30 80 -36 90 -9 12 31 6 115
-10 139 -22 33 -78 35 -95 4z"/>
<path d="M520 1895 c-16 -19 -9 -127 9 -149 16 -19 82 -21 99 -4 20 20 15 112
-9 142 -23 30 -78 36 -99 11z"/>
<path d="M686 1894 c-22 -22 -20 -92 4 -131 17 -28 25 -33 58 -33 49 0 72 24
72 75 0 55 -40 105 -85 105 -18 0 -41 -7 -49 -16z"/>
<path d="M865 1897 c-28 -21 -28 -95 1 -134 16 -22 31 -29 63 -31 23 -2 49 2
57 9 19 15 18 117 -1 143 -19 25 -93 33 -120 13z"/>
<path d="M1057 1892 c-23 -25 -21 -90 3 -129 17 -29 25 -33 63 -33 24 0 48 5
55 12 7 7 12 38 12 70 0 45 -5 63 -20 78 -26 26 -90 27 -113 2z"/>
<path d="M1270 1903 c-47 -17 -55 -94 -14 -142 21 -26 33 -31 69 -31 54 0 75
25 75 86 0 59 -30 94 -78 93 -20 0 -44 -3 -52 -6z"/>
<path d="M1460 1890 c-26 -26 -26 -85 0 -127 17 -28 26 -33 57 -33 61 0 79 9
92 45 17 48 -1 112 -35 125 -42 16 -92 12 -114 -10z"/>
<path d="M1675 1890 c-14 -15 -17 -31 -13 -76 6 -67 22 -84 83 -84 57 0 85 30
85 91 0 39 -4 49 -30 67 -38 29 -100 30 -125 2z"/>
<path d="M1902 1894 c-12 -8 -22 -26 -22 -39 0 -13 -6 -26 -12 -29 -10 -5 -10
-7 0 -12 6 -3 12 -13 12 -23 0 -9 7 -27 16 -39 12 -17 25 -22 63 -22 60 0 96
35 95 92 -2 70 -93 114 -152 72z"/>
<path d="M3286 1889 c-3 -13 -7 -44 -10 -69 -3 -25 -9 -55 -12 -67 -6 -21 -3
-23 30 -23 52 0 86 38 86 95 0 51 -15 73 -57 81 -28 6 -33 3 -37 -17z"/>
<path d="M3443 1884 c-22 -22 -25 -32 -21 -74 3 -27 11 -56 18 -65 25 -30 130
-12 130 24 0 6 5 11 10 11 6 0 10 21 10 46 0 35 -5 50 -22 65 -34 28 -93 25
-125 -7z"/>
<path d="M90 1642 c0 -34 11 -69 39 -122 4 -8 18 -16 30 -18 19 -3 21 1 22 45
l0 48 16 -40 c9 -22 21 -43 27 -47 19 -13 46 -9 46 8 0 8 6 22 14 29 11 12 15
10 24 -10 11 -24 52 -42 71 -31 5 4 12 20 16 36 8 38 20 38 33 0 12 -34 49
-48 81 -30 17 9 21 20 21 65 0 46 -4 58 -27 80 -30 27 -71 33 -91 13 -7 -7
-12 -30 -13 -52 l-1 -41 -8 35 c-15 64 -93 97 -106 45 -3 -14 -4 -37 -2 -50 3
-14 1 -25 -3 -25 -5 0 -9 9 -9 20 0 34 -29 80 -49 80 -31 0 -51 -11 -51 -28 0
-13 -4 -11 -16 6 -8 12 -26 22 -40 22 -21 0 -24 -4 -24 -38z"/>
<path d="M549 1659 c-18 -35 -5 -96 29 -131 27 -26 35 -30 65 -24 30 6 36 11
41 41 4 18 4 46 0 62 -15 63 -110 99 -135 52z"/>
<path d="M715 1663 c-44 -43 16 -163 80 -163 44 0 55 16 55 81 0 50 -3 60 -26
78 -32 25 -86 27 -109 4z"/>
<path d="M896 1658 c-40 -57 7 -158 73 -158 39 0 61 32 61 86 0 59 -30 94 -80
94 -29 0 -43 -6 -54 -22z"/>
<path d="M1074 1655 c-50 -76 57 -195 127 -142 23 17 32 52 24 98 -8 46 -41
69 -99 69 -27 0 -40 -6 -52 -25z"/>
<path d="M1271 1651 c-22 -30 -28 -71 -11 -71 6 0 10 -6 10 -14 0 -28 48 -66
84 -66 44 0 66 29 66 86 0 61 -29 94 -85 94 -37 0 -47 -5 -64 -29z"/>
<path d="M1480 1660 c-53 -53 -3 -160 74 -160 50 0 76 28 76 84 0 64 -29 96
-86 96 -31 0 -50 -6 -64 -20z"/>
<path d="M1690 1660 c-22 -22 -27 -75 -9 -113 29 -64 136 -60 158 6 16 44 -3
105 -35 117 -42 16 -92 12 -114 -10z"/>
<path d="M1907 1662 c-27 -29 -22 -103 8 -136 28 -30 78 -35 111 -11 22 15 40
97 29 127 -15 38 -119 52 -148 20z"/>
<path d="M242 1407 c4 -49 14 -69 56 -113 16 -16 42 -19 42 -4 0 6 6 17 12 24
11 11 18 9 42 -11 47 -39 61 -28 60 46 -1 57 -4 65 -30 87 -16 13 -38 23 -49
21 -16 -2 -21 -12 -26 -57 -3 -30 -6 -44 -7 -30 -2 25 -26 68 -46 82 -6 4 -22
8 -35 8 -22 0 -23 -3 -19 -53z"/>
<path d="M612 1448 c-15 -15 -16 -72 -1 -101 16 -31 59 -67 80 -67 45 0 55
110 14 154 -26 28 -72 35 -93 14z"/>
<path d="M772 1448 c-7 -7 -12 -33 -12 -59 0 -41 4 -50 37 -78 42 -36 65 -39
93 -11 21 21 24 38 14 87 -10 52 -100 93 -132 61z"/>
<path d="M950 1453 c-47 -18 -40 -93 13 -146 21 -21 87 -31 102 -16 11 11 18
77 11 104 -11 43 -80 75 -126 58z"/>
<path d="M1126 1444 c-23 -23 -20 -86 6 -120 12 -16 22 -30 22 -30 1 -1 15 -5
33 -8 25 -6 35 -3 52 15 31 33 29 102 -4 134 -28 29 -85 34 -109 9z"/>
<path d="M1323 1450 c-43 -18 -42 -100 3 -139 38 -33 74 -37 107 -11 48 38 32
127 -27 148 -37 14 -53 14 -83 2z"/>
<path d="M1523 1453 c-7 -2 -20 -19 -28 -37 -13 -27 -13 -37 -3 -57 27 -51 45
-68 80 -74 50 -10 78 21 78 86 0 39 -5 51 -26 68 -25 20 -72 26 -101 14z"/>
<path d="M1730 1454 c-24 -10 -40 -36 -40 -65 0 -33 19 -79 32 -79 5 0 17 -7
25 -16 21 -20 79 -13 99 13 19 26 17 96 -4 123 -17 22 -82 35 -112 24z"/>
<path d="M1920 1440 c-31 -31 -27 -94 6 -125 45 -42 74 -29 74 31 0 14 7 41
15 61 12 29 13 38 3 45 -24 15 -78 8 -98 -12z"/>
<path d="M824 1225 c-8 -32 2 -84 21 -109 11 -15 28 -20 62 -20 l48 -1 3 46
c3 41 -1 50 -28 78 -42 41 -96 44 -106 6z"/>
<path d="M992 1229 c-20 -31 -6 -94 25 -119 32 -25 108 -28 117 -4 23 61 -32
144 -95 144 -24 0 -38 -6 -47 -21z"/>
<path d="M1164 1225 c-14 -22 -15 -32 -5 -65 14 -47 47 -72 95 -72 49 0 56 7
56 61 0 40 -5 52 -30 74 -40 36 -93 37 -116 2z"/>
<path d="M1350 1220 c-15 -36 -6 -92 18 -112 22 -20 70 -28 99 -17 20 7 23 16
23 58 0 67 -30 101 -87 101 -36 0 -42 -4 -53 -30z"/>
<path d="M1547 1232 c-10 -11 -17 -35 -17 -60 0 -53 34 -82 94 -82 53 0 66 13
66 65 0 33 -6 46 -31 68 -37 32 -88 36 -112 9z"/>
<path d="M1742 1230 c-19 -31 -15 -104 6 -123 22 -20 102 -23 120 -5 22 22 15
94 -12 122 -30 33 -95 37 -114 6z"/>
<path d="M908 1044 c-5 -4 -8 -27 -8 -51 0 -36 6 -50 29 -74 32 -31 86 -40
109 -17 15 15 16 58 2 58 -5 0 -10 6 -10 13 0 26 -45 68 -80 73 -19 3 -38 2
-42 -2z"/>
<path d="M1060 1035 c-19 -23 -5 -84 26 -117 21 -21 37 -28 66 -28 27 0 38 4
38 15 0 8 5 15 10 15 6 0 10 9 10 20 0 11 -4 20 -8 20 -5 0 -14 15 -22 34 -20
51 -92 75 -120 41z"/>
<path d="M1232 1038 c-22 -22 -14 -84 14 -118 24 -28 32 -31 73 -28 l46 3 3
44 c3 39 0 47 -32 77 -38 35 -81 45 -104 22z"/>
<path d="M1413 1040 c-35 -14 -32 -77 5 -118 24 -26 36 -32 71 -32 36 0 43 4
52 28 12 30 -2 92 -24 110 -18 16 -79 23 -104 12z"/>
<path d="M1598 1040 c-26 -16 -32 -64 -13 -105 19 -38 42 -48 96 -43 33 3 34
4 37 55 3 45 -1 56 -22 78 -26 26 -67 32 -98 15z"/>
<path d="M1783 1040 c-20 -8 -23 -17 -23 -58 0 -59 28 -92 78 -92 l32 0 0 74
c0 58 -3 75 -16 80 -21 8 -44 7 -71 -4z"/>
<path d="M984 835 c-8 -34 18 -97 47 -112 13 -7 41 -13 62 -13 36 0 37 1 37
35 0 28 -9 44 -40 75 -49 49 -96 56 -106 15z"/>
<path d="M1135 839 c-11 -35 4 -87 32 -109 17 -13 41 -20 69 -20 44 0 44 0 44
35 0 73 -126 155 -145 94z"/>
<path d="M1294 835 c-8 -32 3 -90 20 -104 7 -6 27 -14 44 -17 90 -18 111 37
42 106 -49 49 -96 56 -106 15z"/>
<path d="M1460 836 c-18 -34 -5 -92 25 -112 14 -9 40 -14 67 -12 l43 3 3 47
c3 42 1 48 -27 64 -17 10 -31 22 -31 26 0 4 -15 8 -33 8 -25 0 -37 -6 -47 -24z"/>
<path d="M1638 841 c-27 -27 -23 -76 10 -106 22 -21 35 -25 72 -23 l45 3 3 44
c3 45 -17 81 -45 81 -7 0 -13 5 -13 10 0 17 -54 10 -72 -9z"/>
<path d="M1080 648 c0 -42 11 -63 44 -86 42 -28 96 -30 103 -2 5 20 5 20 34
-1 20 -14 41 -19 66 -17 36 3 38 4 36 38 -2 49 -49 90 -103 90 -38 0 -40 -1
-40 -32 l0 -32 -31 32 c-25 25 -40 32 -70 32 -34 0 -39 -3 -39 -22z"/>
<path d="M1370 631 c0 -57 25 -83 88 -89 l52 -5 0 39 c0 56 -39 94 -97 94
l-43 0 0 -39z"/>
<path d="M1527 663 c-14 -13 -7 -71 11 -93 23 -28 95 -39 116 -17 18 17 21 47
6 47 -5 0 -10 9 -10 19 0 11 -10 27 -22 35 -22 16 -89 22 -101 9z"/>
<path d="M1687 663 c-4 -3 -7 -23 -7 -44 0 -29 6 -42 26 -58 51 -40 133 -17
120 33 -3 12 -6 26 -6 31 0 29 -111 60 -133 38z"/>
<path d="M2010 630 c-8 -5 -10 -10 -3 -10 6 0 9 -9 6 -20 -3 -11 -1 -20 3 -20
5 0 26 -16 47 -35 20 -18 37 -31 37 -28 0 3 6 1 13 -5 13 -11 129 -34 155 -31
9 1 36 -3 58 -9 38 -11 43 -16 53 -58 8 -31 24 -57 53 -85 23 -21 43 -39 45
-39 8 0 90 -56 112 -77 13 -13 36 -26 50 -29 14 -2 52 -11 83 -19 32 -8 69
-15 82 -15 13 0 26 -5 28 -12 5 -15 137 -16 146 -1 10 16 48 29 107 37 60 9
158 36 165 46 9 12 92 28 183 35 64 6 90 12 94 22 7 18 -17 153 -27 153 -4 0
-10 33 -13 73 -4 39 -9 87 -13 105 l-6 32 -722 0 c-448 0 -727 -4 -736 -10z"/>
<path d="M1196 501 c-12 -19 4 -67 29 -91 16 -15 38 -23 62 -24 32 -1 38 2 41
22 l3 23 30 -26 c37 -31 89 -34 96 -6 5 19 5 19 36 0 44 -26 94 -25 102 2 6
19 8 19 25 4 26 -24 86 -31 104 -12 9 9 16 21 16 27 0 7 8 2 18 -10 14 -17 30
-23 63 -24 44 -1 44 -1 47 36 3 29 -2 43 -22 63 -43 43 -106 30 -106 -22 0
-13 -4 -23 -10 -23 -5 0 -10 5 -10 10 0 6 -11 22 -25 35 -39 40 -105 29 -105
-17 0 -10 -4 -18 -10 -18 -5 0 -10 7 -10 15 0 20 -55 47 -88 43 -21 -2 -28 -9
-30 -29 l-3 -27 -24 24 c-45 45 -111 42 -109 -5 1 -21 0 -21 -20 4 -23 28 -88
45 -100 26z"/>
<path d="M1430 321 c0 -45 41 -81 91 -81 33 0 39 3 39 22 l0 21 23 -21 c32
-30 97 -31 97 -1 l0 20 26 -20 c15 -12 41 -21 60 -21 30 0 34 3 34 26 0 14 -9
39 -21 55 -18 26 -26 30 -63 27 -35 -3 -41 -6 -40 -25 0 -13 0 -23 -1 -23 -1
0 -14 11 -30 26 -21 19 -36 24 -64 22 -31 -3 -36 -6 -35 -27 l1 -23 -17 22
c-10 13 -31 23 -58 27 -42 6 -42 5 -42 -26z"/>
<path d="M1540 187 c0 -33 54 -77 96 -77 19 0 34 5 34 10 0 7 6 7 19 0 27 -14
88 -13 94 3 4 9 7 9 18 -1 7 -6 28 -12 46 -12 30 0 33 3 33 28 0 40 -37 72
-83 72 -27 0 -37 -4 -37 -16 0 -14 -2 -14 -22 0 -31 22 -88 21 -88 0 0 -15 -2
-15 -25 0 -13 9 -38 16 -55 16 -25 0 -30 -4 -30 -23z"/>
<path d="M1665 80 c-8 -24 7 -46 46 -66 33 -16 79 -19 79 -4 0 7 6 7 19 0 11
-5 29 -10 41 -10 34 0 23 50 -15 70 -16 8 -31 18 -33 23 -6 12 -40 8 -45 -7
-6 -15 -57 -10 -57 5 0 18 -29 8 -35 -11z"/>
</g>
</svg>
