<svg
    version="1.0"
    xmlns="http://www.w3.org/2000/svg"
    width="564.000000pt"
    height="564.000000pt"
    viewBox="0 0 564.000000 564.000000"
    preserveAspectRatio="xMidYMid meet"
>
    <metadata>
        Created by potrace 1.16, written by Peter Selinger 2001-2019
    </metadata>
    <g
        transform="translate(0.000000,564.000000) scale(0.100000,-0.100000)"
        fill="#000000"
        stroke="none"
    >
        <path
            d="M2589 4325 c-477 -75 -895 -375 -1116 -802 -113 -218 -159 -395 -169
-643 -12 -290 49 -549 188 -795 294 -524 874 -830 1465 -775 695 65 1248 576
1368 1265 23 132 23 365 0 500 -70 412 -308 776 -660 1011 -198 132 -409 212
-638 243 -105 15 -332 12 -438 -4z m486 -101 c270 -47 552 -193 750 -390 701
-697 504 -1864 -388 -2294 -158 -77 -314 -108 -487 -97 -226 15 -401 106 -498
260 -104 165 -118 346 -40 514 22 48 109 142 131 144 7 0 30 8 52 18 l40 18
-60 -4 c-129 -9 -221 -50 -298 -132 -84 -89 -125 -199 -134 -356 -5 -88 -1
-137 22 -280 l5 -30 -14 30 c-8 17 -25 72 -37 123 -43 184 -11 371 92 529 143
218 381 279 622 156 l49 -24 -27 35 c-36 47 -82 81 -163 119 -62 29 -75 32
-172 31 -82 0 -122 -5 -180 -23 -269 -84 -470 -270 -553 -513 -31 -92 -33 -44
-2 64 58 204 175 377 322 474 174 115 447 120 641 11 70 -39 150 -113 197
-182 21 -30 39 -55 41 -55 1 0 -8 33 -21 74 -83 270 -284 461 -566 538 -74 20
-106 23 -274 22 -165 0 -202 -3 -280 -23 -116 -30 -212 -74 -337 -156 -55 -36
-102 -64 -105 -61 -18 18 -2 235 27 367 58 265 185 496 384 694 198 197 411
318 670 380 192 47 397 53 591 19z"
        />
    </g>
</svg>